<svg width="500" height="500" viewBox="0 0 500 500" fill="none" xmlns="http://www.w3.org/2000/svg">
<g clip-path="url(#clip0)">
<path d="M325.413 308.281L382.359 365.226L433.699 313.885L423.639 171.857M325.413 308.281C310.797 322.897 244.948 388.746 168.059 465.635L34.2373 331.813L191.592 174.459M325.413 308.281C325.413 308.281 376.754 256.94 423.639 171.857M191.592 174.459L141.774 124.641L193.115 73.301L330.696 78.9144M191.592 174.459C191.592 174.459 242.932 123.119 330.696 78.9144M330.696 78.9144C330.696 78.9144 421.259 41.6831 439.918 60.3422C457.945 78.3688 423.639 171.857 423.639 171.857" stroke="url(#paint0_linear)" stroke-width="25" stroke-linecap="round" stroke-linejoin="round"/>
</g>
<defs>
<linearGradient id="paint0_linear" x1="-15.5802" y1="233" x2="563.58" y2="233" gradientUnits="userSpaceOnUse">
<stop stop-color="#833AB4"/>
<stop offset="0.508333" stop-color="#FD1D1D"/>
<stop offset="1" stop-color="#FCB045"/>
</linearGradient>
<clipPath id="clip0">
<rect width="500" height="500" fill="white"/>
</clipPath>
</defs>
</svg>
