<svg width="1920" height="750" viewBox="0 0 1920 750" fill="none" xmlns="http://www.w3.org/2000/svg">
<g clip-path="url(#clip0)">
<rect width="1920" height="750" fill="white"/>
<rect width="1920" height="1080" fill="url(#paint0_linear)"/>
<path d="M156.013 289.334L2.32125 408.471V842.615H930.822L1033.68 603.649L982.933 499.48L865.409 408.471L622.346 462.085L373.942 371.271L156.013 289.334Z" fill="url(#paint1_linear)"/>
<path d="M620.629 466.781L621.999 467.282L623.423 466.968L864.199 413.859L978.949 502.719L1028.18 603.778L927.531 837.615H7.32125V410.922L156.869 294.997L372.182 375.951L372.204 375.959L372.225 375.967L620.629 466.781Z" stroke="#2D2D2D" stroke-opacity="0.25" stroke-width="10"/>
<rect x="985.604" y="592.965" width="1017.66" height="328.535" fill="#76BFF3"/>
<rect x="990.604" y="597.965" width="1007.66" height="318.535" stroke="#2D2D2D" stroke-opacity="0.25" stroke-width="10"/>
<ellipse cx="960" cy="1838.85" rx="3750" ry="1250" fill="#C4C4C4"/>
<ellipse cx="960" cy="1838.85" rx="3750" ry="1250" fill="url(#paint2_linear)"/>
<path d="M4705 1838.85C4705 2009.25 4601.4 2172.38 4412.21 2321.47C4223.08 2470.53 3949.09 2604.98 3610.07 2717.99C2932.09 2943.98 1995.15 3083.85 960 3083.85C-75.146 3083.85 -1012.09 2943.98 -1690.07 2717.99C-2029.09 2604.98 -2303.08 2470.53 -2492.21 2321.47C-2681.4 2172.38 -2785 2009.25 -2785 1838.85C-2785 1668.45 -2681.4 1505.31 -2492.21 1356.22C-2303.08 1207.16 -2029.09 1072.71 -1690.07 959.705C-1012.09 733.711 -75.146 593.845 960 593.845C1995.15 593.845 2932.09 733.711 3610.07 959.705C3949.09 1072.71 4223.08 1207.16 4412.21 1356.22C4601.4 1505.31 4705 1668.45 4705 1838.85Z" stroke="#2D2D2D" stroke-opacity="0.25" stroke-width="10"/>
<g filter="url(#filter0_d)">
<path d="M1813.49 225.182V696.698H1890.09V76.7L1698.6 81.6981V182.316C1756.05 182.316 1813.49 184.499 1813.49 225.182Z" fill="url(#paint3_linear)"/>
<path d="M1813.49 225.182V696.698H1890.09V76.7L1698.6 81.6981V182.316C1756.05 182.316 1813.49 184.499 1813.49 225.182Z" stroke="#2D2D2D" stroke-width="5" stroke-linecap="round" stroke-linejoin="round"/>
</g>
<g filter="url(#filter1_i)">
<path d="M1834.07 102.467L1837.44 100.251L1832.95 96.5943H1825.88L1834.07 102.467Z" fill="#ABABAB"/>
<path d="M1839.14 106.412L1842.34 104.085L1852.32 111.378H1845.25L1839.14 106.412Z" fill="#ABABAB"/>
<path d="M1832.02 111.378H1824.72C1841.34 95.8648 1857.84 90.657 1882.65 88.1085C1869.07 90.4354 1847.63 95.2 1832.02 111.378Z" fill="#ABABAB"/>
</g>
<g filter="url(#filter2_d)">
<path d="M1601.9 510.376L1658.29 502.952C1672.69 612.335 1658.9 725.431 1658.9 725.431C1658.9 725.431 1616.3 619.76 1601.9 510.376Z" fill="url(#paint4_linear)"/>
</g>
<g filter="url(#filter3_d)">
<path d="M1600.28 41.4019L1604.63 74.4389L1609.65 112.637L1655.15 458.318L1676.93 495.225L1678.07 503.853L1661.43 506.043L1597.75 514.427L1580.84 516.654L1579.7 508.026L1591.58 467.56L1545.96 121.023L1540.93 82.8248L1536.56 49.6755L1600.28 41.4019Z" fill="url(#paint5_linear)"/>
<path d="M1536.76 83.3737L1536.43 80.8951C1535.65 80.998 1534.96 81.4633 1534.58 82.1506L1536.76 83.3737ZM1534.36 87.6535L1532.18 86.4305C1531.91 86.9012 1531.81 87.4447 1531.88 87.9799L1534.36 87.6535ZM1600.28 41.4019L1602.75 41.0756C1602.57 39.7084 1601.32 38.7451 1599.95 38.9227L1600.28 41.4019ZM1611.9 77.3834L1614.38 77.0571C1614.31 76.5356 1614.08 76.049 1613.72 75.6667L1611.9 77.3834ZM1608.62 73.9127L1610.44 72.1959C1609.89 71.6127 1609.09 71.3294 1608.3 71.4341L1608.62 73.9127ZM1609.65 112.637L1612.13 112.311L1612.13 112.311L1609.65 112.637ZM1591.58 467.56L1593.98 468.264C1594.08 467.93 1594.1 467.579 1594.06 467.233L1591.58 467.56ZM1579.7 508.026L1577.3 507.322C1577.21 507.656 1577.18 508.007 1577.22 508.352L1579.7 508.026ZM1580.84 516.654L1578.36 516.98C1578.54 518.349 1579.8 519.312 1581.16 519.132L1580.84 516.654ZM1678.07 503.853L1678.39 506.332C1679.76 506.151 1680.73 504.896 1680.55 503.527L1678.07 503.853ZM1676.93 495.225L1679.41 494.899C1679.37 494.565 1679.26 494.244 1679.09 493.954L1676.93 495.225ZM1655.15 458.318L1652.67 458.644C1652.72 458.977 1652.83 459.298 1653 459.588L1655.15 458.318ZM1569.71 79.0359L1569.38 76.5573C1568.01 76.7376 1567.05 77.9934 1567.23 79.3623L1569.71 79.0359ZM1571.16 90.0775L1573.32 91.3349C1573.6 90.8567 1573.71 90.2997 1573.64 89.7512L1571.16 90.0775ZM1565.92 99.0811L1563.76 97.8238C1563.34 98.551 1563.31 99.4422 1563.68 100.195L1565.92 99.0811ZM1574.66 116.624L1572.42 117.738C1572.89 118.694 1573.92 119.242 1574.98 119.102L1574.66 116.624ZM1582.22 115.627L1582.55 118.106C1583.64 117.963 1584.5 117.129 1584.69 116.049L1582.22 115.627ZM1585.49 96.5044L1587.96 96.9257C1588.09 96.1665 1587.86 95.3898 1587.34 94.8205L1585.49 96.5044ZM1578.73 89.0811L1576.25 89.4074C1576.32 89.9137 1576.54 90.3875 1576.88 90.765L1578.73 89.0811ZM1577.28 78.0395L1579.76 77.7132C1579.57 76.3443 1578.32 75.3806 1576.95 75.5609L1577.28 78.0395ZM1536.56 49.6755L1536.24 47.1963C1535.58 47.2818 1534.99 47.6256 1534.58 48.1519C1534.18 48.6781 1534 49.3437 1534.09 50.0018L1536.56 49.6755ZM1534.58 82.1506L1532.18 86.4305L1536.54 88.8766L1538.94 84.5968L1534.58 82.1506ZM1531.88 87.9799L1536.4 122.282L1541.35 121.629L1536.84 87.3272L1531.88 87.9799ZM1607.1 74.1126L1602.75 41.0756L1597.8 41.7282L1602.15 74.7652L1607.1 74.1126ZM1618.9 111.42L1614.38 77.0571L1609.42 77.7098L1613.95 112.072L1618.9 111.42ZM1613.72 75.6667L1610.44 72.1959L1606.81 75.6295L1610.08 79.1002L1613.72 75.6667ZM1602.15 74.7652L1607.18 112.964L1612.13 112.311L1607.1 74.1126L1602.15 74.7652ZM1608.3 71.4341L1604.3 71.9603L1604.95 76.9175L1608.95 76.3913L1608.3 71.4341ZM1543.48 121.349L1589.1 467.886L1594.06 467.233L1548.44 120.697L1543.48 121.349ZM1577.22 508.352L1578.36 516.98L1583.32 516.327L1582.18 507.699L1577.22 508.352ZM1581.16 519.132L1598.08 516.906L1597.42 511.948L1580.51 514.175L1581.16 519.132ZM1598.08 516.906L1661.76 508.521L1661.11 503.564L1597.42 511.948L1598.08 516.906ZM1661.76 508.521L1678.39 506.332L1677.74 501.374L1661.11 503.564L1661.76 508.521ZM1680.55 503.527L1679.41 494.899L1674.45 495.551L1675.59 504.179L1680.55 503.527ZM1657.63 457.991L1612.13 112.311L1607.18 112.964L1652.67 458.644L1657.63 457.991ZM1567.23 79.3623L1568.68 90.4039L1573.64 89.7512L1572.19 78.7096L1567.23 79.3623ZM1569 88.8202L1563.76 97.8238L1568.08 100.338L1573.32 91.3349L1569 88.8202ZM1563.68 100.195L1572.42 117.738L1576.89 115.509L1568.16 97.9669L1563.68 100.195ZM1574.98 119.102L1582.55 118.106L1581.9 113.149L1574.33 114.145L1574.98 119.102ZM1584.69 116.049L1587.96 96.9257L1583.03 96.083L1579.76 115.206L1584.69 116.049ZM1587.34 94.8205L1580.58 87.3972L1576.88 90.765L1583.65 98.1882L1587.34 94.8205ZM1581.21 88.7548L1579.76 77.7132L1574.8 78.3658L1576.25 89.4074L1581.21 88.7548ZM1536.89 52.1547L1600.6 43.8811L1599.95 38.9227L1536.24 47.1963L1536.89 52.1547ZM1534.09 50.0018L1538.45 83.1511L1543.41 82.4984L1539.04 49.3492L1534.09 50.0018ZM1538.45 83.1511L1543.48 121.349L1548.44 120.697L1543.41 82.4984L1538.45 83.1511ZM1537.09 85.8523L1541.25 85.3034L1540.6 80.3461L1536.43 80.8951L1537.09 85.8523ZM1570.03 81.5146L1577.6 80.5181L1576.95 75.5609L1569.38 76.5573L1570.03 81.5146ZM1582.1 508.73L1593.98 468.264L1589.18 466.855L1577.3 507.322L1582.1 508.73ZM1653 459.588L1674.78 496.496L1679.09 493.954L1657.3 457.047L1653 459.588Z" fill="#2D2D2D"/>
<path d="M1600.28 41.4018L1604.63 74.4389L1609.65 112.637L1655.15 458.318L1676.93 495.225L1678.07 503.853L1661.43 506.043L1597.75 514.427L1580.84 516.653L1579.7 508.026L1591.58 467.56L1545.96 121.023L1540.93 82.8247L1536.56 49.6754L1600.28 41.4018Z" fill="url(#paint6_linear)"/>
<path d="M1536.76 83.3736L1536.43 80.895C1535.65 80.9979 1534.96 81.4632 1534.58 82.1506L1536.76 83.3736ZM1534.36 87.6535L1532.18 86.4304C1531.91 86.9011 1531.81 87.4447 1531.88 87.9798L1534.36 87.6535ZM1600.28 41.4018L1602.75 41.0755C1602.57 39.7083 1601.32 38.7451 1599.95 38.9226L1600.28 41.4018ZM1611.9 77.3834L1614.38 77.0571C1614.31 76.5356 1614.08 76.049 1613.72 75.6666L1611.9 77.3834ZM1608.62 73.9127L1610.44 72.1959C1609.89 71.6127 1609.09 71.3293 1608.3 71.434L1608.62 73.9127ZM1609.65 112.637L1612.13 112.311L1612.13 112.311L1609.65 112.637ZM1591.58 467.56L1593.98 468.264C1594.08 467.929 1594.1 467.578 1594.06 467.233L1591.58 467.56ZM1579.7 508.026L1577.3 507.321C1577.21 507.656 1577.18 508.007 1577.22 508.352L1579.7 508.026ZM1580.84 516.653L1578.36 516.98C1578.54 518.349 1579.8 519.312 1581.16 519.132L1580.84 516.653ZM1678.07 503.853L1678.39 506.332C1679.76 506.151 1680.73 504.896 1680.55 503.527L1678.07 503.853ZM1676.93 495.225L1679.41 494.899C1679.37 494.565 1679.26 494.244 1679.09 493.954L1676.93 495.225ZM1655.15 458.318L1652.67 458.644C1652.72 458.977 1652.83 459.298 1653 459.588L1655.15 458.318ZM1569.71 79.0359L1569.38 76.5573C1568.01 76.7375 1567.05 77.9933 1567.23 79.3622L1569.71 79.0359ZM1571.16 90.0775L1573.32 91.3348C1573.6 90.8566 1573.71 90.2997 1573.64 89.7512L1571.16 90.0775ZM1565.92 99.0811L1563.76 97.8237C1563.34 98.5509 1563.31 99.4421 1563.68 100.195L1565.92 99.0811ZM1574.66 116.624L1572.42 117.738C1572.89 118.694 1573.92 119.242 1574.98 119.102L1574.66 116.624ZM1582.22 115.627L1582.55 118.106C1583.64 117.963 1584.5 117.129 1584.69 116.049L1582.22 115.627ZM1585.49 96.5043L1587.96 96.9256C1588.09 96.1664 1587.86 95.3897 1587.34 94.8204L1585.49 96.5043ZM1578.73 89.081L1576.25 89.4073C1576.32 89.9137 1576.54 90.3874 1576.88 90.7649L1578.73 89.081ZM1577.28 78.0394L1579.76 77.7131C1579.57 76.3442 1578.32 75.3806 1576.95 75.5608L1577.28 78.0394ZM1536.56 49.6754L1536.24 47.1963C1535.58 47.2817 1534.99 47.6255 1534.58 48.1518C1534.18 48.6781 1534 49.3436 1534.09 50.0018L1536.56 49.6754ZM1534.58 82.1506L1532.18 86.4304L1536.54 88.8765L1538.94 84.5967L1534.58 82.1506ZM1531.88 87.9798L1536.4 122.282L1541.35 121.629L1536.84 87.3272L1531.88 87.9798ZM1607.1 74.1126L1602.75 41.0755L1597.8 41.7281L1602.15 74.7652L1607.1 74.1126ZM1618.9 111.42L1614.38 77.0571L1609.42 77.7097L1613.95 112.072L1618.9 111.42ZM1613.72 75.6666L1610.44 72.1959L1606.81 75.6294L1610.08 79.1002L1613.72 75.6666ZM1602.15 74.7652L1607.18 112.964L1612.13 112.311L1607.1 74.1126L1602.15 74.7652ZM1608.3 71.434L1604.3 71.9603L1604.95 76.9175L1608.95 76.3913L1608.3 71.434ZM1543.48 121.349L1589.1 467.886L1594.06 467.233L1548.44 120.697L1543.48 121.349ZM1577.22 508.352L1578.36 516.98L1583.32 516.327L1582.18 507.699L1577.22 508.352ZM1581.16 519.132L1598.08 516.906L1597.42 511.948L1580.51 514.175L1581.16 519.132ZM1598.08 516.906L1661.76 508.521L1661.11 503.564L1597.42 511.948L1598.08 516.906ZM1661.76 508.521L1678.39 506.332L1677.74 501.374L1661.11 503.564L1661.76 508.521ZM1680.55 503.527L1679.41 494.899L1674.45 495.551L1675.59 504.179L1680.55 503.527ZM1657.63 457.991L1612.13 112.311L1607.18 112.964L1652.67 458.644L1657.63 457.991ZM1567.23 79.3622L1568.68 90.4038L1573.64 89.7512L1572.19 78.7096L1567.23 79.3622ZM1569 88.8202L1563.76 97.8237L1568.08 100.338L1573.32 91.3348L1569 88.8202ZM1563.68 100.195L1572.42 117.738L1576.89 115.509L1568.16 97.9669L1563.68 100.195ZM1574.98 119.102L1582.55 118.106L1581.9 113.149L1574.33 114.145L1574.98 119.102ZM1584.69 116.049L1587.96 96.9256L1583.03 96.083L1579.76 115.206L1584.69 116.049ZM1587.34 94.8204L1580.58 87.3971L1576.88 90.7649L1583.65 98.1882L1587.34 94.8204ZM1581.21 88.7547L1579.76 77.7131L1574.8 78.3657L1576.25 89.4073L1581.21 88.7547ZM1536.89 52.1546L1600.6 43.881L1599.95 38.9226L1536.24 47.1963L1536.89 52.1546ZM1534.09 50.0018L1538.45 83.151L1543.41 82.4984L1539.04 49.3491L1534.09 50.0018ZM1538.45 83.151L1543.48 121.349L1548.44 120.697L1543.41 82.4984L1538.45 83.151ZM1537.09 85.8522L1541.25 85.3033L1540.6 80.3461L1536.43 80.895L1537.09 85.8522ZM1570.03 81.5145L1577.6 80.518L1576.95 75.5608L1569.38 76.5573L1570.03 81.5145ZM1582.1 508.73L1593.98 468.264L1589.18 466.855L1577.3 507.321L1582.1 508.73ZM1653 459.588L1674.78 496.496L1679.09 493.954L1657.3 457.047L1653 459.588Z" fill="#2D2D2D"/>
</g>
<g filter="url(#filter4_d)">
<path d="M176.037 479.43L226.287 486.046C213.455 583.515 175.498 677.676 175.498 677.676C175.498 677.676 163.205 576.899 176.037 479.43Z" fill="url(#paint7_linear)"/>
</g>
<g filter="url(#filter5_d)">
<path d="M247.723 127.481C238.756 126.301 222.105 153.76 222.105 153.76C207.676 182.479 204.593 205.897 204.593 205.897L183.304 367.602L169.304 473.942L233.611 482.409L247.611 376.068L268.9 214.364C268.9 214.364 271.983 190.945 266.768 159.64C266.768 159.64 256.385 128.622 247.723 127.481Z" fill="#8D8D8D" stroke="#2D2D2D" stroke-width="5" stroke-linecap="round" stroke-linejoin="round"/>
<path d="M222.105 153.76C222.105 153.76 238.756 126.301 247.723 127.481C256.385 128.622 266.768 159.64 266.768 159.64L299.352 194.515L296.265 217.966L268.9 214.364L247.611 376.068L233.611 482.409L169.304 473.942L183.305 367.602L204.593 205.897L180.717 202.754L183.804 179.303L222.105 153.76Z" fill="url(#paint8_linear)"/>
<path d="M268.9 214.364C268.022 221.031 252.229 340.996 247.611 376.068L233.611 482.409L169.304 473.942L183.305 367.602L204.593 205.897M268.9 214.364C268.9 214.364 271.983 190.945 266.768 159.64M268.9 214.364L296.265 217.966L299.352 194.515L266.768 159.64M204.593 205.897C204.593 205.897 207.676 182.479 222.105 153.76M204.593 205.897L180.717 202.754L183.804 179.303L222.105 153.76M222.105 153.76C222.105 153.76 238.756 126.301 247.723 127.481C256.385 128.622 266.768 159.64 266.768 159.64" stroke="#2D2D2D" stroke-width="5" stroke-linecap="round" stroke-linejoin="round"/>
<path d="M257.922 221.853L213.259 215.973L212.375 222.686L257.038 228.566L257.922 221.853Z" fill="#484848" stroke="#2D2D2D" stroke-width="5" stroke-linecap="round" stroke-linejoin="round"/>
<path d="M256.124 235.511L211.461 229.631L210.577 236.344L255.24 242.224L256.124 235.511Z" fill="#484848" stroke="#2D2D2D" stroke-width="5" stroke-linecap="round" stroke-linejoin="round"/>
<path d="M254.326 249.17L209.663 243.29L208.779 250.002L253.442 255.882L254.326 249.17Z" fill="#484848" stroke="#2D2D2D" stroke-width="5" stroke-linecap="round" stroke-linejoin="round"/>
<path d="M233.611 482.409L247.611 376.068L273.333 441.399L267.349 486.85L233.611 482.409Z" fill="#C6C3C3" stroke="#2D2D2D" stroke-width="5" stroke-linecap="round" stroke-linejoin="round"/>
<path d="M168.392 473.822L182.392 367.481L140.637 423.929L134.654 469.381L168.392 473.822Z" fill="#757575" stroke="#2D2D2D" stroke-width="5" stroke-linecap="round" stroke-linejoin="round"/>
<path d="M268.9 214.364L296.265 217.966L299.348 194.548L266.768 159.64M268.9 214.364C268.022 221.031 252.229 340.996 247.611 376.068M268.9 214.364C268.9 214.364 271.983 190.945 266.768 159.64M204.593 205.897L180.654 202.746L183.737 179.328L222.105 153.76M204.593 205.897L183.305 367.602M204.593 205.897C204.593 205.897 207.676 182.479 222.105 153.76M222.105 153.76C222.105 153.76 238.756 126.301 247.723 127.481C256.385 128.622 266.768 159.64 266.768 159.64M183.305 367.602L140.54 424.665L134.654 469.381L169.304 473.942M183.305 367.602L169.304 473.942M247.611 376.068L272.468 442.034L266.581 486.749L233.611 482.409M247.611 376.068L233.611 482.409M169.304 473.942L233.611 482.409" stroke="#2D2D2D" stroke-width="5" stroke-linecap="round" stroke-linejoin="round"/>
<path d="M258.836 214.908L214.173 209.028C217.256 185.61 234.081 137.521 245.547 139.031C257.012 140.54 261.919 191.49 258.836 214.908Z" fill="#484848" stroke="#2D2D2D" stroke-width="5" stroke-linecap="round" stroke-linejoin="round"/>
<mask id="mask0" mask-type="alpha" maskUnits="userSpaceOnUse" x="211" y="136" width="52" height="82">
<path opacity="0.5" d="M258.836 214.908L214.173 209.028C217.256 185.61 234.081 137.521 245.547 139.031C257.012 140.54 261.919 191.49 258.836 214.908Z" fill="#232323" stroke="#2D2D2D" stroke-width="5" stroke-linecap="round" stroke-linejoin="round"/>
</mask>
<g mask="url(#mask0)">
<path d="M231.341 236.68C232.181 237.775 231.975 239.344 230.879 240.185C229.784 241.025 228.215 240.819 227.374 239.723L231.341 236.68ZM175.759 172.458C174.919 171.362 175.125 169.793 176.221 168.952C177.316 168.112 178.885 168.318 179.726 169.414L175.759 172.458ZM227.374 239.723L175.759 172.458L179.726 169.414L231.341 236.68L227.374 239.723Z" fill="#2D2D2D"/>
<path d="M231.341 236.68C232.181 237.775 231.975 239.344 230.879 240.185C229.784 241.025 228.215 240.819 227.374 239.723L231.341 236.68ZM175.759 172.458C174.919 171.362 175.125 169.793 176.221 168.952C177.316 168.112 178.885 168.318 179.726 169.414L175.759 172.458ZM227.374 239.723L175.759 172.458L179.726 169.414L231.341 236.68L227.374 239.723Z" fill="#2D2D2D"/>
<path d="M240.178 229.458C241.019 230.553 240.812 232.122 239.717 232.963C238.621 233.803 237.052 233.597 236.211 232.501L240.178 229.458ZM184.597 165.236C183.756 164.14 183.963 162.571 185.058 161.73C186.153 160.89 187.723 161.096 188.563 162.192L184.597 165.236ZM236.211 232.501L184.597 165.236L188.563 162.192L240.178 229.458L236.211 232.501Z" fill="#2D2D2D"/>
<path d="M250.355 223.981C251.195 225.076 250.989 226.645 249.893 227.486C248.798 228.326 247.228 228.12 246.388 227.024L250.355 223.981ZM194.773 159.759C193.933 158.663 194.139 157.094 195.235 156.253C196.33 155.413 197.899 155.619 198.74 156.715L194.773 159.759ZM246.388 227.024L194.773 159.759L198.74 156.715L250.355 223.981L246.388 227.024Z" fill="#2D2D2D"/>
<path d="M259.968 217.77C260.809 218.865 260.602 220.435 259.507 221.275C258.411 222.116 256.842 221.909 256.001 220.814L259.968 217.77ZM204.386 153.548C203.546 152.452 203.753 150.883 204.848 150.043C205.943 149.202 207.513 149.409 208.353 150.504L204.386 153.548ZM256.001 220.814L204.386 153.548L208.353 150.504L259.968 217.77L256.001 220.814Z" fill="#2D2D2D"/>
<path d="M269.769 211.804C270.61 212.899 270.403 214.468 269.308 215.309C268.212 216.149 266.643 215.943 265.802 214.847L269.769 211.804ZM214.188 147.582C213.347 146.486 213.554 144.917 214.649 144.076C215.744 143.236 217.314 143.442 218.154 144.538L214.188 147.582ZM265.802 214.847L214.188 147.582L218.154 144.538L269.769 211.804L265.802 214.847Z" fill="#2D2D2D"/>
<path d="M279.032 205.137C279.873 206.232 279.666 207.801 278.571 208.642C277.475 209.483 275.906 209.276 275.066 208.181L279.032 205.137ZM223.451 140.915C222.61 139.819 222.817 138.25 223.912 137.409C225.008 136.569 226.577 136.776 227.417 137.871L223.451 140.915ZM275.066 208.181L223.451 140.915L227.417 137.871L279.032 205.137L275.066 208.181Z" fill="#2D2D2D"/>
<path d="M279.032 205.137C279.873 206.232 279.666 207.801 278.571 208.642C277.475 209.483 275.906 209.276 275.066 208.181L279.032 205.137ZM223.451 140.915C222.61 139.819 222.817 138.25 223.912 137.409C225.008 136.569 226.577 136.776 227.417 137.871L223.451 140.915ZM275.066 208.181L223.451 140.915L227.417 137.871L279.032 205.137L275.066 208.181Z" fill="#2D2D2D"/>
<path d="M287.87 197.915C288.71 199.01 288.504 200.579 287.408 201.42C286.313 202.26 284.743 202.054 283.903 200.958L287.87 197.915ZM232.288 133.693C231.448 132.597 231.654 131.028 232.75 130.187C233.845 129.347 235.414 129.553 236.255 130.649L232.288 133.693ZM283.903 200.958L232.288 133.693L236.255 130.649L287.87 197.915L283.903 200.958Z" fill="#2D2D2D"/>
<path d="M298.046 192.438C298.887 193.533 298.68 195.102 297.585 195.943C296.489 196.784 294.92 196.577 294.079 195.482L298.046 192.438ZM242.465 128.216C241.624 127.12 241.831 125.551 242.926 124.71C244.021 123.87 245.591 124.077 246.431 125.172L242.465 128.216ZM294.079 195.482L242.465 128.216L246.431 125.172L298.046 192.438L294.079 195.482Z" fill="#2D2D2D"/>
<path d="M307.66 186.227C308.5 187.322 308.294 188.892 307.198 189.732C306.103 190.573 304.533 190.366 303.693 189.271L307.66 186.227ZM252.078 122.005C251.237 120.91 251.444 119.34 252.539 118.5C253.635 117.659 255.204 117.866 256.045 118.961L252.078 122.005ZM303.693 189.271L252.078 122.005L256.045 118.961L307.66 186.227L303.693 189.271Z" fill="#2D2D2D"/>
<path d="M317.461 180.261C318.301 181.356 318.095 182.926 316.999 183.766C315.904 184.607 314.334 184.4 313.494 183.305L317.461 180.261ZM261.879 116.039C261.039 114.943 261.245 113.374 262.341 112.533C263.436 111.693 265.005 111.9 265.846 112.995L261.879 116.039ZM313.494 183.305L261.879 116.039L265.846 112.995L317.461 180.261L313.494 183.305Z" fill="#2D2D2D"/>
<path d="M290.339 194.822C291.435 193.981 293.004 194.188 293.844 195.283C294.685 196.379 294.478 197.948 293.383 198.789L290.339 194.822ZM226.117 250.404C225.022 251.244 223.452 251.038 222.612 249.942C221.771 248.847 221.978 247.277 223.073 246.437L226.117 250.404ZM293.383 198.789L226.117 250.404L223.073 246.437L290.339 194.822L293.383 198.789Z" fill="#2D2D2D"/>
<path d="M290.339 194.822C291.435 193.981 293.004 194.188 293.844 195.283C294.685 196.379 294.478 197.948 293.383 198.789L290.339 194.822ZM226.117 250.404C225.022 251.244 223.452 251.038 222.612 249.942C221.771 248.847 221.978 247.277 223.073 246.437L226.117 250.404ZM293.383 198.789L226.117 250.404L223.073 246.437L290.339 194.822L293.383 198.789Z" fill="#2D2D2D"/>
<path d="M283.117 185.985C284.212 185.144 285.782 185.351 286.622 186.446C287.463 187.541 287.256 189.111 286.161 189.951L283.117 185.985ZM218.895 241.566C217.8 242.407 216.23 242.2 215.39 241.105C214.549 240.009 214.756 238.44 215.851 237.599L218.895 241.566ZM286.161 189.951L218.895 241.566L215.851 237.599L283.117 185.985L286.161 189.951Z" fill="#2D2D2D"/>
<path d="M277.64 175.808C278.736 174.968 280.305 175.174 281.145 176.27C281.986 177.365 281.779 178.934 280.684 179.775L277.64 175.808ZM213.418 231.39C212.323 232.23 210.753 232.024 209.913 230.928C209.072 229.833 209.279 228.264 210.374 227.423L213.418 231.39ZM280.684 179.775L213.418 231.39L210.374 227.423L277.64 175.808L280.684 179.775Z" fill="#2D2D2D"/>
<path d="M271.429 166.195C272.525 165.354 274.094 165.561 274.935 166.656C275.775 167.752 275.569 169.321 274.473 170.161L271.429 166.195ZM207.207 221.776C206.112 222.617 204.543 222.41 203.702 221.315C202.862 220.219 203.068 218.65 204.164 217.81L207.207 221.776ZM274.473 170.161L207.207 221.776L204.164 217.81L271.429 166.195L274.473 170.161Z" fill="#2D2D2D"/>
<path d="M265.463 156.394C266.559 155.553 268.128 155.76 268.969 156.855C269.809 157.95 269.602 159.52 268.507 160.36L265.463 156.394ZM201.241 211.975C200.146 212.816 198.576 212.609 197.736 211.514C196.895 210.418 197.102 208.849 198.197 208.008L201.241 211.975ZM268.507 160.36L201.241 211.975L198.197 208.008L265.463 156.394L268.507 160.36Z" fill="#2D2D2D"/>
<path d="M258.796 147.13C259.892 146.29 261.461 146.497 262.302 147.592C263.142 148.687 262.936 150.257 261.84 151.097L258.796 147.13ZM194.574 202.712C193.479 203.553 191.91 203.346 191.069 202.251C190.228 201.155 190.435 199.586 191.53 198.745L194.574 202.712ZM261.84 151.097L194.574 202.712L191.53 198.745L258.796 147.13L261.84 151.097Z" fill="#2D2D2D"/>
<path d="M258.796 147.13C259.892 146.29 261.461 146.497 262.302 147.592C263.142 148.687 262.936 150.257 261.84 151.097L258.796 147.13ZM194.574 202.712C193.479 203.553 191.91 203.346 191.069 202.251C190.228 201.155 190.435 199.586 191.53 198.745L194.574 202.712ZM261.84 151.097L194.574 202.712L191.53 198.745L258.796 147.13L261.84 151.097Z" fill="#2D2D2D"/>
<path d="M251.574 138.293C252.67 137.453 254.239 137.659 255.08 138.755C255.92 139.85 255.713 141.419 254.618 142.26L251.574 138.293ZM187.352 193.875C186.257 194.715 184.687 194.509 183.847 193.413C183.006 192.318 183.213 190.749 184.308 189.908L187.352 193.875ZM254.618 142.26L187.352 193.875L184.308 189.908L251.574 138.293L254.618 142.26Z" fill="#2D2D2D"/>
<path d="M246.097 128.117C247.193 127.276 248.762 127.483 249.603 128.578C250.443 129.673 250.236 131.243 249.141 132.083L246.097 128.117ZM181.875 183.698C180.78 184.539 179.211 184.332 178.37 183.237C177.529 182.141 177.736 180.572 178.831 179.731L181.875 183.698ZM249.141 132.083L181.875 183.698L178.831 179.731L246.097 128.117L249.141 132.083Z" fill="#2D2D2D"/>
<path d="M239.886 118.503C240.982 117.663 242.551 117.869 243.392 118.965C244.232 120.06 244.026 121.629 242.93 122.47L239.886 118.503ZM175.664 174.085C174.569 174.925 173 174.719 172.159 173.623C171.319 172.528 171.525 170.959 172.621 170.118L175.664 174.085ZM242.93 122.47L175.664 174.085L172.621 170.118L239.886 118.503L242.93 122.47Z" fill="#2D2D2D"/>
<path d="M233.92 108.702C235.016 107.862 236.585 108.068 237.426 109.164C238.266 110.259 238.06 111.828 236.964 112.669L233.92 108.702ZM169.698 164.284C168.603 165.124 167.034 164.918 166.193 163.822C165.353 162.727 165.559 161.157 166.655 160.317L169.698 164.284ZM236.964 112.669L169.698 164.284L166.655 160.317L233.92 108.702L236.964 112.669Z" fill="#2D2D2D"/>
</g>
</g>
</g>
<defs>
<filter id="filter0_d" x="1696.1" y="74.2" width="205.488" height="633.998" filterUnits="userSpaceOnUse" color-interpolation-filters="sRGB">
<feFlood flood-opacity="0" result="BackgroundImageFix"/>
<feColorMatrix in="SourceAlpha" type="matrix" values="0 0 0 0 0 0 0 0 0 0 0 0 0 0 0 0 0 0 127 0"/>
<feOffset dx="5" dy="5"/>
<feGaussianBlur stdDeviation="2"/>
<feColorMatrix type="matrix" values="0 0 0 0 0 0 0 0 0 0 0 0 0 0 0 0 0 0 0.25 0"/>
<feBlend mode="normal" in2="BackgroundImageFix" result="effect1_dropShadow"/>
<feBlend mode="normal" in="SourceGraphic" in2="effect1_dropShadow" result="shape"/>
</filter>
<filter id="filter1_i" x="1824.72" y="88.1085" width="57.928" height="27.269" filterUnits="userSpaceOnUse" color-interpolation-filters="sRGB">
<feFlood flood-opacity="0" result="BackgroundImageFix"/>
<feBlend mode="normal" in="SourceGraphic" in2="BackgroundImageFix" result="shape"/>
<feColorMatrix in="SourceAlpha" type="matrix" values="0 0 0 0 0 0 0 0 0 0 0 0 0 0 0 0 0 0 127 0" result="hardAlpha"/>
<feOffset dy="4"/>
<feGaussianBlur stdDeviation="2"/>
<feComposite in2="hardAlpha" operator="arithmetic" k2="-1" k3="1"/>
<feColorMatrix type="matrix" values="0 0 0 0 0 0 0 0 0 0 0 0 0 0 0 0 0 0 0.25 0"/>
<feBlend mode="normal" in2="shape" result="effect1_innerShadow"/>
</filter>
<filter id="filter2_d" x="1587.9" y="502.952" width="76.9543" height="233.98" filterUnits="userSpaceOnUse" color-interpolation-filters="sRGB">
<feFlood flood-opacity="0" result="BackgroundImageFix"/>
<feColorMatrix in="SourceAlpha" type="matrix" values="0 0 0 0 0 0 0 0 0 0 0 0 0 0 0 0 0 0 127 0"/>
<feOffset dx="-10" dy="7.5"/>
<feGaussianBlur stdDeviation="2"/>
<feColorMatrix type="matrix" values="0 0 0 0 0 0 0 0 0 0 0 0 0 0 0 0 0 0 0.25 0"/>
<feBlend mode="normal" in2="BackgroundImageFix" result="effect1_dropShadow"/>
<feBlend mode="normal" in="SourceGraphic" in2="effect1_dropShadow" result="shape"/>
</filter>
<filter id="filter3_d" x="1517.86" y="38.9016" width="162.71" height="491.752" filterUnits="userSpaceOnUse" color-interpolation-filters="sRGB">
<feFlood flood-opacity="0" result="BackgroundImageFix"/>
<feColorMatrix in="SourceAlpha" type="matrix" values="0 0 0 0 0 0 0 0 0 0 0 0 0 0 0 0 0 0 127 0"/>
<feOffset dx="-10" dy="7.5"/>
<feGaussianBlur stdDeviation="2"/>
<feColorMatrix type="matrix" values="0 0 0 0 0 0 0 0 0 0 0 0 0 0 0 0 0 0 0.25 0"/>
<feBlend mode="normal" in2="BackgroundImageFix" result="effect1_dropShadow"/>
<feBlend mode="normal" in="SourceGraphic" in2="effect1_dropShadow" result="shape"/>
</filter>
<filter id="filter4_d" x="156.191" y="479.43" width="70.0968" height="209.745" filterUnits="userSpaceOnUse" color-interpolation-filters="sRGB">
<feFlood flood-opacity="0" result="BackgroundImageFix"/>
<feColorMatrix in="SourceAlpha" type="matrix" values="0 0 0 0 0 0 0 0 0 0 0 0 0 0 0 0 0 0 127 0"/>
<feOffset dx="-10" dy="7.5"/>
<feGaussianBlur stdDeviation="2"/>
<feColorMatrix type="matrix" values="0 0 0 0 0 0 0 0 0 0 0 0 0 0 0 0 0 0 0.25 0"/>
<feBlend mode="normal" in2="BackgroundImageFix" result="effect1_dropShadow"/>
<feBlend mode="normal" in="SourceGraphic" in2="effect1_dropShadow" result="shape"/>
</filter>
<filter id="filter5_d" x="118.153" y="124.944" width="183.699" height="378.406" filterUnits="userSpaceOnUse" color-interpolation-filters="sRGB">
<feFlood flood-opacity="0" result="BackgroundImageFix"/>
<feColorMatrix in="SourceAlpha" type="matrix" values="0 0 0 0 0 0 0 0 0 0 0 0 0 0 0 0 0 0 127 0"/>
<feOffset dx="-10" dy="10"/>
<feGaussianBlur stdDeviation="2"/>
<feColorMatrix type="matrix" values="0 0 0 0 0 0 0 0 0 0 0 0 0 0 0 0 0 0 0.25 0"/>
<feBlend mode="normal" in2="BackgroundImageFix" result="effect1_dropShadow"/>
<feBlend mode="normal" in="SourceGraphic" in2="effect1_dropShadow" result="shape"/>
</filter>
<linearGradient id="paint0_linear" x1="-112.675" y1="1194.36" x2="2418.76" y2="661.027" gradientUnits="userSpaceOnUse">
<stop offset="0.451042" stop-color="#D6B38A"/>
<stop offset="1" stop-color="#7CDDF2"/>
</linearGradient>
<linearGradient id="paint1_linear" x1="146.239" y1="129.99" x2="740.48" y2="694.054" gradientUnits="userSpaceOnUse">
<stop stop-color="#F8BD79"/>
<stop offset="1" stop-color="#DE7325"/>
</linearGradient>
<linearGradient id="paint2_linear" x1="1913.29" y1="970.328" x2="-14.1462" y2="588.845" gradientUnits="userSpaceOnUse">
<stop offset="0.0656249" stop-color="#1D1D1D"/>
<stop offset="0.492708" stop-color="#CF8F60"/>
<stop offset="0.776257" stop-color="#DB7C38"/>
</linearGradient>
<linearGradient id="paint3_linear" x1="1890.09" y1="375.21" x2="1698.6" y2="375.21" gradientUnits="userSpaceOnUse">
<stop offset="0.381983" stop-color="#ADADAD"/>
<stop offset="1" stop-color="#757575"/>
</linearGradient>
<linearGradient id="paint4_linear" x1="1687.09" y1="502.952" x2="1601.9" y2="729.143" gradientUnits="userSpaceOnUse">
<stop stop-color="#BCD3FF"/>
<stop offset="1" stop-color="#FF8A00"/>
</linearGradient>
<linearGradient id="paint5_linear" x1="1550.25" y1="284.278" x2="1647.48" y2="271.477" gradientUnits="userSpaceOnUse">
<stop stop-color="#ADADAD"/>
<stop offset="1" stop-color="#757575"/>
</linearGradient>
<linearGradient id="paint6_linear" x1="1568.27" y1="45.5017" x2="1629.45" y2="510.253" gradientUnits="userSpaceOnUse">
<stop stop-color="#ADADAD"/>
<stop offset="1" stop-color="#C4C4C4" stop-opacity="0"/>
</linearGradient>
<linearGradient id="paint7_linear" x1="224.622" y1="486.325" x2="125.813" y2="586.328" gradientUnits="userSpaceOnUse">
<stop stop-color="#BCD3FF"/>
<stop offset="1" stop-color="#FF6B00"/>
</linearGradient>
<linearGradient id="paint8_linear" x1="255.613" y1="313.65" x2="185.836" y2="303.052" gradientUnits="userSpaceOnUse">
<stop stop-color="#ADADAD"/>
<stop offset="1" stop-color="#757575"/>
</linearGradient>
<clipPath id="clip0">
<rect width="1920" height="750" fill="white"/>
</clipPath>
</defs>
</svg>
