<svg width="106" height="431" viewBox="0 0 106 431" fill="none" xmlns="http://www.w3.org/2000/svg">
<path d="M22.024 5.71631L22.0322 0.716315C20.7047 0.714152 19.4308 1.23998 18.4914 2.1779C17.5519 3.11581 17.024 4.38881 17.024 5.71631L22.024 5.71631ZM17.95 35.6736V30.6736C16.4402 30.6736 15.0112 31.3558 14.0619 32.5299L17.95 35.6736ZM15.1032 39.1946L11.215 36.051C10.4956 36.9408 10.1032 38.0504 10.1032 39.1946H15.1032ZM84.2598 5.81771H89.2598C89.2598 3.05946 87.0261 0.822206 84.2679 0.817712L84.2598 5.81771ZM84.2598 70.1938L89.2598 70.194V70.1938H84.2598ZM90.8753 39.1401H95.8753C95.8753 38.024 95.5018 36.9399 94.8143 36.0606L90.8753 39.1401ZM88.1651 35.6736L92.1042 32.594C91.1566 31.3819 89.7037 30.6736 88.1651 30.6736V35.6736ZM22.024 383.362L26.5349 385.519C26.8569 384.845 27.024 384.108 27.024 383.362H22.024ZM5.5 417.919L0.989156 415.762C0.66714 416.436 0.5 417.173 0.5 417.919H5.5ZM5.5 425.716H0.5C0.5 428.478 2.73858 430.716 5.5 430.716L5.5 425.716ZM100.5 425.716V430.716C103.261 430.716 105.5 428.478 105.5 425.716H100.5ZM100.5 417.919H105.5C105.5 417.198 105.344 416.485 105.043 415.83L100.5 417.919ZM84.2482 382.587L79.2482 382.586C79.2481 383.308 79.4042 384.021 79.7057 384.676L84.2482 382.587ZM50.1428 35.6736V30.6736C47.3814 30.6736 45.1428 32.9121 45.1428 35.6736H50.1428ZM50.1428 45.652L53.9799 48.8576C54.7312 47.9584 55.1428 46.8238 55.1428 45.652H50.1428ZM43.9728 53.0373L40.1357 49.8316C38.9852 51.2087 38.6609 53.0967 39.2859 54.7788L43.9728 53.0373ZM50.1428 69.642L45.4559 71.3835C46.1838 73.3424 48.0531 74.642 50.1428 74.642V69.642ZM57.5382 69.642V74.642C59.688 74.642 61.5972 73.2677 62.2796 71.2291L57.5382 69.642ZM63.0964 53.0373L67.8378 54.6244C68.3602 53.0636 68.0811 51.3457 67.0914 50.0306L63.0964 53.0373ZM57.5382 45.652H52.5382C52.5382 46.7367 52.8909 47.7919 53.5432 48.6586L57.5382 45.652ZM57.5382 35.6736H62.5382C62.5382 32.9121 60.2996 30.6736 57.5382 30.6736V35.6736ZM14.0619 32.5299L11.215 36.051L18.9913 42.3383L21.8382 38.8172L14.0619 32.5299ZM10.1032 39.1946V70.1938H20.1032V39.1946H10.1032ZM89.2598 35.6736V5.81771H79.2598V35.6736H89.2598ZM95.8753 70.1938V39.1401H85.8753V70.1938H95.8753ZM94.8143 36.0606L92.1042 32.594L84.2261 38.7531L86.9362 42.2197L94.8143 36.0606ZM79.2598 35.6736V70.1938H89.2598V35.6736H79.2598ZM88.1651 30.6736H84.2598V40.6736H88.1651V30.6736ZM17.024 70.1938V383.362H27.024V70.1938H17.024ZM0.5 417.919V425.716H10.5V417.919H0.5ZM5.5 430.716H22.024V420.716H5.5V430.716ZM22.024 430.716H84.2482V420.716H22.024V430.716ZM84.2482 430.716H100.5V420.716H84.2482V430.716ZM105.5 425.716V417.919H95.5V425.716H105.5ZM89.2482 382.587L89.2598 70.194L79.2598 70.1936L79.2482 382.586L89.2482 382.587ZM45.1428 35.6736V45.652H55.1428V35.6736H45.1428ZM46.3057 42.4463L40.1357 49.8316L47.81 56.2429L53.9799 48.8576L46.3057 42.4463ZM39.2859 54.7788L45.4559 71.3835L54.8297 67.9004L48.6597 51.2957L39.2859 54.7788ZM50.1428 74.642H57.5382V64.642H50.1428V74.642ZM62.2796 71.2291L67.8378 54.6244L58.3549 51.4501L52.7967 68.0548L62.2796 71.2291ZM67.0914 50.0306L61.5332 42.6453L53.5432 48.6586L59.1014 56.0439L67.0914 50.0306ZM62.5382 45.652V35.6736H52.5382V45.652H62.5382ZM22.0159 10.7163L84.2516 10.8177L84.2679 0.817712L22.0322 0.716315L22.0159 10.7163ZM17.024 5.71631V35.6736H27.024V5.71631H17.024ZM17.024 35.6736V70.1938H27.024V35.6736H17.024ZM17.95 40.6736H22.024V30.6736H17.95V40.6736ZM50.1428 40.6736H57.5382V30.6736H50.1428V40.6736ZM10.0108 420.076L26.5349 385.519L17.5132 381.205L0.989156 415.762L10.0108 420.076ZM79.7057 384.676L95.9575 420.009L105.043 415.83L88.7907 380.497L79.7057 384.676Z" fill="#424242"/>
</svg>
